<svg width="22" height="24" viewBox="0 0 22 24" fill="none" xmlns="http://www.w3.org/2000/svg">
<path id="Vector" d="M13.8841 1.89716C12.9095 1.41587 11.837 1.16599 10.7501 1.167C6.71247 1.167 3.43756 4.56433 3.43756 8.75574V9.51949C3.43886 10.4312 3.17869 11.3241 2.68789 12.0924L1.48756 13.9601C0.392306 15.6663 1.22864 17.9857 3.13422 18.5252C8.11334 19.9368 13.3868 19.9368 18.3659 18.5252C20.2715 17.9857 21.1078 15.6663 20.0126 13.9612L18.8122 12.0924C18.3214 11.3241 18.0613 10.4312 18.0626 9.51949V8.75574C18.0626 7.59224 17.8101 6.48941 17.3584 5.50358M15.6251 19.5837C14.9155 21.4773 13.0012 22.8337 10.7501 22.8337C10.4846 22.8337 10.2246 22.8152 9.97006 22.7795M5.87506 19.5837C6.16842 20.3571 6.65383 21.043 7.28556 21.577" stroke="#162F43" stroke-width="1.5" stroke-linecap="round"/>
</svg>
