<svg width="20" height="14" viewBox="0 0 20 14" fill="none" xmlns="http://www.w3.org/2000/svg">
<path id="Vector" d="M1.42857 0H8.57143C8.95031 0 9.31367 0.1475 9.58158 0.410051C9.84949 0.672601 10 1.0287 10 1.4C10 1.7713 9.84949 2.1274 9.58158 2.38995C9.31367 2.6525 8.95031 2.8 8.57143 2.8H1.42857C1.04969 2.8 0.686328 2.6525 0.418419 2.38995C0.15051 2.1274 0 1.7713 0 1.4C0 1.0287 0.15051 0.672601 0.418419 0.410051C0.686328 0.1475 1.04969 0 1.42857 0ZM11.4286 11.2H18.5714C18.9503 11.2 19.3137 11.3475 19.5816 11.6101C19.8495 11.8726 20 12.2287 20 12.6C20 12.9713 19.8495 13.3274 19.5816 13.5899C19.3137 13.8525 18.9503 14 18.5714 14H11.4286C11.0497 14 10.6863 13.8525 10.4184 13.5899C10.1505 13.3274 10 12.9713 10 12.6C10 12.2287 10.1505 11.8726 10.4184 11.6101C10.6863 11.3475 11.0497 11.2 11.4286 11.2ZM1.42857 5.6H18.5714C18.9503 5.6 19.3137 5.7475 19.5816 6.01005C19.8495 6.2726 20 6.6287 20 7C20 7.3713 19.8495 7.7274 19.5816 7.98995C19.3137 8.2525 18.9503 8.4 18.5714 8.4H1.42857C1.04969 8.4 0.686328 8.2525 0.418419 7.98995C0.15051 7.7274 0 7.3713 0 7C0 6.6287 0.15051 6.2726 0.418419 6.01005C0.686328 5.7475 1.04969 5.6 1.42857 5.6Z" fill="#162F43"/>
</svg>
